<svg width="128" height="128" viewBox="0 0 128 128" fill="none" xmlns="http://www.w3.org/2000/svg">
<path fill-rule="evenodd" clip-rule="evenodd" d="M69.1027 53.8316C69.5142 54.0737 69.9657 54.1948 70.4165 54.1948C70.868 54.1948 71.3188 54.0737 71.7302 53.8316L96.2961 39.3777C96.7955 39.0838 97.1404 38.5836 97.2427 38.0046C97.3451 37.427 97.1934 36.8356 96.8256 36.3828C95.4503 34.6873 93.9355 33.0845 92.3191 31.6159L95.607 25.812C96.0914 24.9566 95.8825 23.8548 95.1211 23.2488C91.63 20.4704 87.7919 18.1704 83.7141 16.4123C83.5029 16.3212 83.2912 16.2322 83.0794 16.1439C82.1828 15.7735 81.141 16.1396 80.6559 16.9957L77.3651 22.8039C74.9795 22.0003 72.5094 21.4118 70.0179 21.0523C69.4584 20.9714 68.8902 21.142 68.4624 21.5205C68.0344 21.899 67.789 22.4474 67.789 23.0249V51.5127C67.789 52.4811 68.2799 53.3474 69.1027 53.8316ZM70.2183 23.5849C72.503 23.9474 74.7641 24.514 76.9472 25.2723C77.8309 25.5786 78.8098 25.2053 79.2741 24.3849L82.552 18.6L82.5988 18.62C82.6547 18.6438 82.7117 18.6682 82.7674 18.6925C86.5218 20.3107 90.0616 22.4109 93.2958 24.9398L90.0208 30.7204C89.5557 31.5415 89.7245 32.5886 90.4229 33.2114C91.9119 34.5393 93.3123 35.9876 94.5924 37.5211L70.5159 51.6877C70.4501 51.7264 70.3828 51.7264 70.317 51.6877C70.2512 51.6491 70.2183 51.59 70.2183 51.5127L70.2183 23.5849Z" fill="#00CC66"/>
<path fill-rule="evenodd" clip-rule="evenodd" d="M56.7592 75.6205C55.9363 75.1363 54.9539 75.1363 54.131 75.6205L31.8112 88.7539C31.3103 89.0485 30.9654 89.5502 30.8638 90.1306C30.763 90.7096 30.9168 91.3018 31.286 91.7539C32.6319 93.3998 34.1088 94.9559 35.6808 96.3844L32.3929 102.188C31.9085 103.043 32.1167 104.145 32.8788 104.752C36.3692 107.53 40.2066 109.83 44.2859 111.588C44.497 111.679 44.7088 111.768 44.9206 111.856C45.1567 111.953 45.4021 112 45.6462 112C46.3266 112 46.9864 111.635 47.3434 111.005L50.6342 105.196C52.3042 105.759 54.0208 106.218 55.7409 106.563C56.3163 106.678 56.9058 106.526 57.3595 106.147C57.8124 105.767 58.0729 105.206 58.0729 104.608V77.9395C58.0729 76.9718 57.5813 76.1048 56.7592 75.6205ZM55.6436 104.016C54.0909 103.68 52.5453 103.247 51.0434 102.725C50.1662 102.419 49.1902 102.794 48.7251 103.615L45.4479 109.4C45.3757 109.37 45.3034 109.339 45.2318 109.308C41.4774 107.69 37.9369 105.589 34.7034 103.06L37.9784 97.2799C38.4435 96.4588 38.2747 95.4109 37.5763 94.7882C36.1316 93.4989 34.7678 92.0944 33.5171 90.6083L55.346 77.7645C55.4118 77.7258 55.4783 77.7258 55.5442 77.7645C55.61 77.8031 55.6436 77.8622 55.6436 77.9395L55.6436 104.016Z" fill="#00CC66"/>
<path fill-rule="evenodd" clip-rule="evenodd" d="M49.273 62.4068C50.0959 62.891 50.5868 63.7581 50.5868 64.7265C50.5868 65.6942 50.0959 66.5612 49.273 67.0454L26.9189 80.1984C26.6177 80.3756 26.2806 80.4653 25.9422 80.4653C25.719 80.4653 25.495 80.4267 25.2796 80.3479C24.7379 80.1496 24.3115 79.72 24.1104 79.1709C23.3534 77.1043 22.7488 74.9641 22.3109 72.8019H15.7372C14.7648 72.8019 13.9319 72.0596 13.8002 71.0744C13.4904 68.7547 13.333 66.3738 13.333 64.0002C13.333 61.6258 13.4904 59.2457 13.8002 56.9253C13.9319 55.9408 14.7648 55.1985 15.7372 55.1985H22.3109C22.66 53.4724 23.1165 51.7565 23.6697 50.0917C23.8571 49.5251 24.2807 49.0788 24.8303 48.8674C25.3812 48.6559 25.9887 48.7069 26.4982 49.0067L49.273 62.4068ZM26.1926 77.7672L48.0588 64.9015C48.1246 64.8629 48.1582 64.8038 48.1583 64.7265C48.1583 64.6485 48.1246 64.5901 48.0588 64.5507L25.7884 51.4473C25.3104 52.9598 24.9168 54.5123 24.6163 56.0706C24.4374 56.9997 23.6317 57.6735 22.7001 57.6735H16.1536C15.8939 59.7525 15.7622 61.8789 15.7622 64.0002C15.7622 66.1215 15.8939 68.2479 16.1536 70.3262H22.7001C23.631 70.3262 24.4374 71 24.6163 71.9283C24.9977 73.9067 25.5272 75.8676 26.1926 77.7672Z" fill="#00CC66"/>
<path fill-rule="evenodd" clip-rule="evenodd" d="M112.262 55.1981H105.688C105.262 53.0921 104.678 51.008 103.951 48.9968C103.752 48.4448 103.326 48.0138 102.783 47.8133C102.24 47.6127 101.641 47.6667 101.14 47.9613L76.5883 62.4072C75.7661 62.8914 75.2745 63.7584 75.2745 64.7261C75.2745 65.6945 75.7661 66.5616 76.5883 67.0451L100.688 81.2255C100.989 81.402 101.327 81.4924 101.666 81.4924C101.88 81.4924 102.095 81.4567 102.303 81.3837C102.838 81.1964 103.266 80.7822 103.478 80.2476C104.431 77.8441 105.175 75.3414 105.688 72.8015H112.262C113.235 72.8015 114.067 72.0592 114.199 71.0747C114.509 68.7543 114.666 66.3742 114.666 63.9998C114.666 61.6262 114.509 59.246 114.199 56.9256C114.067 55.9404 113.235 55.1981 112.262 55.1981ZM111.846 70.3266H105.3C104.368 70.3266 103.562 71.0004 103.383 71.9294C102.932 74.268 102.275 76.5774 101.427 78.8016L77.8032 64.9019C77.7374 64.8625 77.7038 64.8034 77.7038 64.7261C77.7038 64.6488 77.7374 64.5898 77.8032 64.5511L101.863 50.394C102.501 52.2404 103.012 54.1473 103.383 56.0703C103.562 56.9993 104.368 57.6738 105.299 57.6738H111.846C112.105 59.7521 112.237 61.8785 112.237 63.9998C112.237 66.1219 112.105 68.2475 111.846 70.3266Z" fill="#00CC66"/>
<path fill-rule="evenodd" clip-rule="evenodd" d="M71.7304 75.6205L95.4813 89.5953C95.99 89.895 96.3371 90.4062 96.4322 90.9983C96.5274 91.589 96.36 92.1862 95.9722 92.6354C94.8344 93.9538 93.6066 95.214 92.3186 96.3844L95.6065 102.188C96.0909 103.043 95.8827 104.145 95.1214 104.751C91.6302 107.53 87.7921 109.83 83.7135 111.588C83.5032 111.679 83.2907 111.768 83.0788 111.856C82.8427 111.953 82.5966 112 82.3533 112C81.6728 112 81.0131 111.635 80.656 111.005L77.3653 105.196C74.9789 106 72.5089 106.588 70.0174 106.948C69.4565 107.029 68.8904 106.858 68.4625 106.48C68.0347 106.101 67.7892 105.553 67.7892 104.975V77.9401C67.7892 76.9717 68.2801 76.1047 69.103 75.6205C69.9259 75.1363 70.9075 75.137 71.7304 75.6205ZM90.021 97.2798C89.5559 96.4587 89.7248 95.4108 90.4232 94.788C91.5938 93.7438 92.715 92.6201 93.7618 91.4424L70.5154 77.7644C70.4496 77.7257 70.3831 77.7257 70.3173 77.7644C70.2514 77.803 70.2178 77.8621 70.2178 77.9401V104.415C72.5025 104.053 74.7636 103.486 76.9474 102.728C77.1549 102.656 77.3674 102.621 77.5778 102.621C78.2625 102.621 78.9187 102.987 79.2743 103.615L82.5515 109.4C82.6238 109.37 82.6953 109.339 82.7676 109.308C86.522 107.689 90.0618 105.589 93.296 103.06L90.021 97.2798Z" fill="#00CC66"/>
<path fill-rule="evenodd" clip-rule="evenodd" d="M55.7411 21.4374C54.0202 21.7823 52.3044 22.2418 50.6343 22.804L47.3435 16.9957C46.8584 16.1396 45.8166 15.7735 44.9207 16.144C44.7082 16.2322 44.4964 16.3212 44.2853 16.4123C40.2067 18.1705 36.3686 20.4704 32.8789 23.2488C32.1176 23.8548 31.9086 24.9559 32.3924 25.812L35.681 31.6159C33.7805 33.3427 32.026 35.2474 30.4626 37.2827C30.1134 37.737 29.9753 38.3226 30.0826 38.8891C30.1906 39.4565 30.5341 39.9472 31.0242 40.236L54.1311 53.8317C54.5426 54.0738 54.9941 54.1948 55.4449 54.1948C55.8963 54.1948 56.3479 54.0738 56.7593 53.8317C57.5815 53.3475 58.073 52.4804 58.073 51.5128V23.3925C58.073 22.7945 57.8126 22.2337 57.3589 21.8531C56.906 21.4731 56.3164 21.3222 55.7411 21.4374ZM55.6438 51.5128C55.6438 51.59 55.6102 51.6491 55.5443 51.6878C55.4785 51.7264 55.4119 51.7272 55.3461 51.6878L32.7151 38.3721C34.1805 36.5185 35.8141 34.7844 37.5764 33.2114C38.2741 32.5894 38.4437 31.5415 37.9786 30.7204L34.7035 24.9399C37.937 22.4109 41.4775 20.3108 45.232 18.6919C45.2705 18.6754 45.3093 18.6589 45.348 18.6424L45.4474 18.6L48.7245 24.3842C49.1896 25.206 50.1649 25.5808 51.0436 25.2753C52.5455 24.7532 54.0904 24.32 55.6438 23.9838L55.6438 51.5128Z" fill="#00CC66"/>
</svg>
